<mxfile host="app.diagrams.net" modified="2023-08-07T20:02:52.871Z" agent="Mozilla/5.0 (Windows NT 10.0; Win64; x64) AppleWebKit/537.36 (KHTML, like Gecko) Chrome/113.0.0.0 Safari/537.36" etag="uWtyUvNkSY4d8jj9xUYA" version="21.6.5" type="github">
  <diagram name="Page-1" id="7gehYfuKZ5U4FNBNs62T">
    <mxGraphModel dx="2534" dy="796" grid="1" gridSize="10" guides="1" tooltips="1" connect="1" arrows="1" fold="1" page="1" pageScale="1" pageWidth="1100" pageHeight="850" math="0" shadow="0">
      <root>
        <mxCell id="0" />
        <mxCell id="1" parent="0" />
        <mxCell id="CrMVlfWZlN9xDP7UxND2-35" style="edgeStyle=orthogonalEdgeStyle;rounded=0;orthogonalLoop=1;jettySize=auto;html=1;" edge="1" parent="1" source="CrMVlfWZlN9xDP7UxND2-1" target="CrMVlfWZlN9xDP7UxND2-5">
          <mxGeometry relative="1" as="geometry" />
        </mxCell>
        <mxCell id="CrMVlfWZlN9xDP7UxND2-51" value="1.1" style="edgeLabel;html=1;align=center;verticalAlign=middle;resizable=0;points=[];" vertex="1" connectable="0" parent="CrMVlfWZlN9xDP7UxND2-35">
          <mxGeometry x="-0.6471" relative="1" as="geometry">
            <mxPoint as="offset" />
          </mxGeometry>
        </mxCell>
        <mxCell id="CrMVlfWZlN9xDP7UxND2-55" value="1.*" style="edgeLabel;html=1;align=center;verticalAlign=middle;resizable=0;points=[];" vertex="1" connectable="0" parent="CrMVlfWZlN9xDP7UxND2-35">
          <mxGeometry x="0.3529" y="1" relative="1" as="geometry">
            <mxPoint y="18" as="offset" />
          </mxGeometry>
        </mxCell>
        <mxCell id="CrMVlfWZlN9xDP7UxND2-1" value="Entreprises" style="swimlane;fontStyle=0;childLayout=stackLayout;horizontal=1;startSize=26;fillColor=none;horizontalStack=0;resizeParent=1;resizeParentMax=0;resizeLast=0;collapsible=1;marginBottom=0;whiteSpace=wrap;html=1;" vertex="1" parent="1">
          <mxGeometry x="40" y="40" width="140" height="52" as="geometry" />
        </mxCell>
        <mxCell id="CrMVlfWZlN9xDP7UxND2-2" value="+ id" style="text;strokeColor=none;fillColor=none;align=left;verticalAlign=top;spacingLeft=4;spacingRight=4;overflow=hidden;rotatable=0;points=[[0,0.5],[1,0.5]];portConstraint=eastwest;whiteSpace=wrap;html=1;" vertex="1" parent="CrMVlfWZlN9xDP7UxND2-1">
          <mxGeometry y="26" width="140" height="26" as="geometry" />
        </mxCell>
        <mxCell id="CrMVlfWZlN9xDP7UxND2-5" value="Utilisateurs" style="swimlane;fontStyle=0;childLayout=stackLayout;horizontal=1;startSize=26;fillColor=none;horizontalStack=0;resizeParent=1;resizeParentMax=0;resizeLast=0;collapsible=1;marginBottom=0;whiteSpace=wrap;html=1;" vertex="1" parent="1">
          <mxGeometry x="-110" y="160" width="140" height="52" as="geometry" />
        </mxCell>
        <mxCell id="CrMVlfWZlN9xDP7UxND2-6" value="+ id" style="text;strokeColor=none;fillColor=none;align=left;verticalAlign=top;spacingLeft=4;spacingRight=4;overflow=hidden;rotatable=0;points=[[0,0.5],[1,0.5]];portConstraint=eastwest;whiteSpace=wrap;html=1;" vertex="1" parent="CrMVlfWZlN9xDP7UxND2-5">
          <mxGeometry y="26" width="140" height="26" as="geometry" />
        </mxCell>
        <mxCell id="CrMVlfWZlN9xDP7UxND2-43" style="edgeStyle=orthogonalEdgeStyle;rounded=0;orthogonalLoop=1;jettySize=auto;html=1;" edge="1" parent="1" source="CrMVlfWZlN9xDP7UxND2-9" target="CrMVlfWZlN9xDP7UxND2-13">
          <mxGeometry relative="1" as="geometry" />
        </mxCell>
        <mxCell id="CrMVlfWZlN9xDP7UxND2-47" value="&lt;font style=&quot;font-size: 11px;&quot;&gt;1.*&lt;/font&gt;" style="edgeLabel;html=1;align=center;verticalAlign=middle;resizable=0;points=[];fontColor=#000000;" vertex="1" connectable="0" parent="CrMVlfWZlN9xDP7UxND2-43">
          <mxGeometry x="-0.936" relative="1" as="geometry">
            <mxPoint as="offset" />
          </mxGeometry>
        </mxCell>
        <mxCell id="CrMVlfWZlN9xDP7UxND2-48" value="&lt;font&gt;0.1&lt;/font&gt;" style="edgeLabel;html=1;align=center;verticalAlign=middle;resizable=0;points=[];fontColor=#000000;" vertex="1" connectable="0" parent="CrMVlfWZlN9xDP7UxND2-43">
          <mxGeometry x="0.9134" relative="1" as="geometry">
            <mxPoint as="offset" />
          </mxGeometry>
        </mxCell>
        <mxCell id="CrMVlfWZlN9xDP7UxND2-44" style="edgeStyle=orthogonalEdgeStyle;rounded=0;orthogonalLoop=1;jettySize=auto;html=1;" edge="1" parent="1" source="CrMVlfWZlN9xDP7UxND2-9" target="CrMVlfWZlN9xDP7UxND2-15">
          <mxGeometry relative="1" as="geometry">
            <Array as="points">
              <mxPoint x="980" y="120" />
            </Array>
          </mxGeometry>
        </mxCell>
        <mxCell id="CrMVlfWZlN9xDP7UxND2-53" value="0.*" style="edgeLabel;html=1;align=center;verticalAlign=middle;resizable=0;points=[];" vertex="1" connectable="0" parent="CrMVlfWZlN9xDP7UxND2-44">
          <mxGeometry x="0.9316" y="4" relative="1" as="geometry">
            <mxPoint as="offset" />
          </mxGeometry>
        </mxCell>
        <mxCell id="CrMVlfWZlN9xDP7UxND2-54" value="1.1" style="edgeLabel;html=1;align=center;verticalAlign=middle;resizable=0;points=[];" vertex="1" connectable="0" parent="CrMVlfWZlN9xDP7UxND2-44">
          <mxGeometry x="-0.9446" y="1" relative="1" as="geometry">
            <mxPoint as="offset" />
          </mxGeometry>
        </mxCell>
        <mxCell id="CrMVlfWZlN9xDP7UxND2-9" value="Artciles" style="swimlane;fontStyle=0;childLayout=stackLayout;horizontal=1;startSize=26;fillColor=none;horizontalStack=0;resizeParent=1;resizeParentMax=0;resizeLast=0;collapsible=1;marginBottom=0;whiteSpace=wrap;html=1;" vertex="1" parent="1">
          <mxGeometry x="330" y="72" width="140" height="70" as="geometry" />
        </mxCell>
        <mxCell id="CrMVlfWZlN9xDP7UxND2-10" value="+ id" style="text;strokeColor=none;fillColor=none;align=left;verticalAlign=top;spacingLeft=4;spacingRight=4;overflow=hidden;rotatable=0;points=[[0,0.5],[1,0.5]];portConstraint=eastwest;whiteSpace=wrap;html=1;" vertex="1" parent="CrMVlfWZlN9xDP7UxND2-9">
          <mxGeometry y="26" width="140" height="44" as="geometry" />
        </mxCell>
        <mxCell id="CrMVlfWZlN9xDP7UxND2-13" value="Categories" style="swimlane;fontStyle=0;childLayout=stackLayout;horizontal=1;startSize=26;fillColor=none;horizontalStack=0;resizeParent=1;resizeParentMax=0;resizeLast=0;collapsible=1;marginBottom=0;whiteSpace=wrap;html=1;" vertex="1" parent="1">
          <mxGeometry x="940" y="20" width="140" height="52" as="geometry" />
        </mxCell>
        <mxCell id="CrMVlfWZlN9xDP7UxND2-14" value="+ id" style="text;strokeColor=none;fillColor=none;align=left;verticalAlign=top;spacingLeft=4;spacingRight=4;overflow=hidden;rotatable=0;points=[[0,0.5],[1,0.5]];portConstraint=eastwest;whiteSpace=wrap;html=1;" vertex="1" parent="CrMVlfWZlN9xDP7UxND2-13">
          <mxGeometry y="26" width="140" height="26" as="geometry" />
        </mxCell>
        <mxCell id="CrMVlfWZlN9xDP7UxND2-15" value="MvtStk" style="swimlane;fontStyle=0;childLayout=stackLayout;horizontal=1;startSize=26;fillColor=none;horizontalStack=0;resizeParent=1;resizeParentMax=0;resizeLast=0;collapsible=1;marginBottom=0;whiteSpace=wrap;html=1;" vertex="1" parent="1">
          <mxGeometry x="910" y="224" width="140" height="52" as="geometry" />
        </mxCell>
        <mxCell id="CrMVlfWZlN9xDP7UxND2-16" value="+ id" style="text;strokeColor=none;fillColor=none;align=left;verticalAlign=top;spacingLeft=4;spacingRight=4;overflow=hidden;rotatable=0;points=[[0,0.5],[1,0.5]];portConstraint=eastwest;whiteSpace=wrap;html=1;" vertex="1" parent="CrMVlfWZlN9xDP7UxND2-15">
          <mxGeometry y="26" width="140" height="26" as="geometry" />
        </mxCell>
        <mxCell id="CrMVlfWZlN9xDP7UxND2-76" style="edgeStyle=orthogonalEdgeStyle;rounded=0;orthogonalLoop=1;jettySize=auto;html=1;" edge="1" parent="1" source="CrMVlfWZlN9xDP7UxND2-17" target="CrMVlfWZlN9xDP7UxND2-19">
          <mxGeometry relative="1" as="geometry" />
        </mxCell>
        <mxCell id="CrMVlfWZlN9xDP7UxND2-77" value="1.*" style="edgeLabel;html=1;align=center;verticalAlign=middle;resizable=0;points=[];" vertex="1" connectable="0" parent="CrMVlfWZlN9xDP7UxND2-76">
          <mxGeometry x="0.7089" relative="1" as="geometry">
            <mxPoint as="offset" />
          </mxGeometry>
        </mxCell>
        <mxCell id="CrMVlfWZlN9xDP7UxND2-78" value="1.1" style="edgeLabel;html=1;align=center;verticalAlign=middle;resizable=0;points=[];" vertex="1" connectable="0" parent="CrMVlfWZlN9xDP7UxND2-76">
          <mxGeometry x="-0.7089" relative="1" as="geometry">
            <mxPoint as="offset" />
          </mxGeometry>
        </mxCell>
        <mxCell id="CrMVlfWZlN9xDP7UxND2-17" value="Vente" style="swimlane;fontStyle=0;childLayout=stackLayout;horizontal=1;startSize=26;fillColor=none;horizontalStack=0;resizeParent=1;resizeParentMax=0;resizeLast=0;collapsible=1;marginBottom=0;whiteSpace=wrap;html=1;" vertex="1" parent="1">
          <mxGeometry x="720" y="520" width="140" height="52" as="geometry" />
        </mxCell>
        <mxCell id="CrMVlfWZlN9xDP7UxND2-18" value="+ id" style="text;strokeColor=none;fillColor=none;align=left;verticalAlign=top;spacingLeft=4;spacingRight=4;overflow=hidden;rotatable=0;points=[[0,0.5],[1,0.5]];portConstraint=eastwest;whiteSpace=wrap;html=1;" vertex="1" parent="CrMVlfWZlN9xDP7UxND2-17">
          <mxGeometry y="26" width="140" height="26" as="geometry" />
        </mxCell>
        <mxCell id="CrMVlfWZlN9xDP7UxND2-75" style="edgeStyle=orthogonalEdgeStyle;rounded=0;orthogonalLoop=1;jettySize=auto;html=1;" edge="1" parent="1" source="CrMVlfWZlN9xDP7UxND2-19" target="CrMVlfWZlN9xDP7UxND2-10">
          <mxGeometry relative="1" as="geometry">
            <Array as="points">
              <mxPoint x="790" y="190" />
              <mxPoint x="450" y="190" />
            </Array>
          </mxGeometry>
        </mxCell>
        <mxCell id="CrMVlfWZlN9xDP7UxND2-19" value="LigneVente" style="swimlane;fontStyle=0;childLayout=stackLayout;horizontal=1;startSize=26;fillColor=none;horizontalStack=0;resizeParent=1;resizeParentMax=0;resizeLast=0;collapsible=1;marginBottom=0;whiteSpace=wrap;html=1;" vertex="1" parent="1">
          <mxGeometry x="720" y="310" width="140" height="52" as="geometry" />
        </mxCell>
        <mxCell id="CrMVlfWZlN9xDP7UxND2-20" value="+ id" style="text;strokeColor=none;fillColor=none;align=left;verticalAlign=top;spacingLeft=4;spacingRight=4;overflow=hidden;rotatable=0;points=[[0,0.5],[1,0.5]];portConstraint=eastwest;whiteSpace=wrap;html=1;" vertex="1" parent="CrMVlfWZlN9xDP7UxND2-19">
          <mxGeometry y="26" width="140" height="26" as="geometry" />
        </mxCell>
        <mxCell id="CrMVlfWZlN9xDP7UxND2-69" style="edgeStyle=orthogonalEdgeStyle;rounded=0;orthogonalLoop=1;jettySize=auto;html=1;entryX=0.2;entryY=1;entryDx=0;entryDy=0;entryPerimeter=0;" edge="1" parent="1" source="CrMVlfWZlN9xDP7UxND2-21" target="CrMVlfWZlN9xDP7UxND2-10">
          <mxGeometry relative="1" as="geometry" />
        </mxCell>
        <mxCell id="CrMVlfWZlN9xDP7UxND2-81" value="1.*" style="edgeLabel;html=1;align=center;verticalAlign=middle;resizable=0;points=[];" vertex="1" connectable="0" parent="CrMVlfWZlN9xDP7UxND2-69">
          <mxGeometry x="0.8411" y="-1" relative="1" as="geometry">
            <mxPoint as="offset" />
          </mxGeometry>
        </mxCell>
        <mxCell id="CrMVlfWZlN9xDP7UxND2-82" value="1.1" style="edgeLabel;html=1;align=center;verticalAlign=middle;resizable=0;points=[];" vertex="1" connectable="0" parent="CrMVlfWZlN9xDP7UxND2-69">
          <mxGeometry x="-0.8344" y="-2" relative="1" as="geometry">
            <mxPoint as="offset" />
          </mxGeometry>
        </mxCell>
        <mxCell id="CrMVlfWZlN9xDP7UxND2-21" value="LigneCodeFournisseurs" style="swimlane;fontStyle=0;childLayout=stackLayout;horizontal=1;startSize=26;fillColor=none;horizontalStack=0;resizeParent=1;resizeParentMax=0;resizeLast=0;collapsible=1;marginBottom=0;whiteSpace=wrap;html=1;" vertex="1" parent="1">
          <mxGeometry x="120" y="276" width="140" height="52" as="geometry" />
        </mxCell>
        <mxCell id="CrMVlfWZlN9xDP7UxND2-22" value="+ id" style="text;strokeColor=none;fillColor=none;align=left;verticalAlign=top;spacingLeft=4;spacingRight=4;overflow=hidden;rotatable=0;points=[[0,0.5],[1,0.5]];portConstraint=eastwest;whiteSpace=wrap;html=1;" vertex="1" parent="CrMVlfWZlN9xDP7UxND2-21">
          <mxGeometry y="26" width="140" height="26" as="geometry" />
        </mxCell>
        <mxCell id="CrMVlfWZlN9xDP7UxND2-67" style="edgeStyle=orthogonalEdgeStyle;rounded=0;orthogonalLoop=1;jettySize=auto;html=1;" edge="1" parent="1" source="CrMVlfWZlN9xDP7UxND2-23" target="CrMVlfWZlN9xDP7UxND2-27">
          <mxGeometry relative="1" as="geometry" />
        </mxCell>
        <mxCell id="CrMVlfWZlN9xDP7UxND2-70" value="1.1" style="edgeLabel;html=1;align=center;verticalAlign=middle;resizable=0;points=[];" vertex="1" connectable="0" parent="CrMVlfWZlN9xDP7UxND2-67">
          <mxGeometry x="-0.8571" y="-1" relative="1" as="geometry">
            <mxPoint as="offset" />
          </mxGeometry>
        </mxCell>
        <mxCell id="CrMVlfWZlN9xDP7UxND2-71" value="1.*" style="edgeLabel;html=1;align=center;verticalAlign=middle;resizable=0;points=[];" vertex="1" connectable="0" parent="CrMVlfWZlN9xDP7UxND2-67">
          <mxGeometry x="0.7262" relative="1" as="geometry">
            <mxPoint as="offset" />
          </mxGeometry>
        </mxCell>
        <mxCell id="CrMVlfWZlN9xDP7UxND2-23" value="Fournisseurs&amp;nbsp;" style="swimlane;fontStyle=0;childLayout=stackLayout;horizontal=1;startSize=26;fillColor=none;horizontalStack=0;resizeParent=1;resizeParentMax=0;resizeLast=0;collapsible=1;marginBottom=0;whiteSpace=wrap;html=1;" vertex="1" parent="1">
          <mxGeometry x="20" y="640" width="140" height="52" as="geometry" />
        </mxCell>
        <mxCell id="CrMVlfWZlN9xDP7UxND2-24" value="+ id" style="text;strokeColor=none;fillColor=none;align=left;verticalAlign=top;spacingLeft=4;spacingRight=4;overflow=hidden;rotatable=0;points=[[0,0.5],[1,0.5]];portConstraint=eastwest;whiteSpace=wrap;html=1;" vertex="1" parent="CrMVlfWZlN9xDP7UxND2-23">
          <mxGeometry y="26" width="140" height="26" as="geometry" />
        </mxCell>
        <mxCell id="CrMVlfWZlN9xDP7UxND2-68" style="edgeStyle=orthogonalEdgeStyle;rounded=0;orthogonalLoop=1;jettySize=auto;html=1;" edge="1" parent="1" source="CrMVlfWZlN9xDP7UxND2-27" target="CrMVlfWZlN9xDP7UxND2-21">
          <mxGeometry relative="1" as="geometry" />
        </mxCell>
        <mxCell id="CrMVlfWZlN9xDP7UxND2-72" value="1.1" style="edgeLabel;html=1;align=center;verticalAlign=middle;resizable=0;points=[];" vertex="1" connectable="0" parent="CrMVlfWZlN9xDP7UxND2-68">
          <mxGeometry x="-0.7292" y="2" relative="1" as="geometry">
            <mxPoint as="offset" />
          </mxGeometry>
        </mxCell>
        <mxCell id="CrMVlfWZlN9xDP7UxND2-73" value="1.*" style="edgeLabel;html=1;align=center;verticalAlign=middle;resizable=0;points=[];" vertex="1" connectable="0" parent="CrMVlfWZlN9xDP7UxND2-68">
          <mxGeometry x="0.7604" y="3" relative="1" as="geometry">
            <mxPoint as="offset" />
          </mxGeometry>
        </mxCell>
        <mxCell id="CrMVlfWZlN9xDP7UxND2-27" value="CommandeFourniesseur" style="swimlane;fontStyle=0;childLayout=stackLayout;horizontal=1;startSize=26;fillColor=none;horizontalStack=0;resizeParent=1;resizeParentMax=0;resizeLast=0;collapsible=1;marginBottom=0;whiteSpace=wrap;html=1;" vertex="1" parent="1">
          <mxGeometry x="40" y="440" width="140" height="52" as="geometry" />
        </mxCell>
        <mxCell id="CrMVlfWZlN9xDP7UxND2-28" value="+ id" style="text;strokeColor=none;fillColor=none;align=left;verticalAlign=top;spacingLeft=4;spacingRight=4;overflow=hidden;rotatable=0;points=[[0,0.5],[1,0.5]];portConstraint=eastwest;whiteSpace=wrap;html=1;" vertex="1" parent="CrMVlfWZlN9xDP7UxND2-27">
          <mxGeometry y="26" width="140" height="26" as="geometry" />
        </mxCell>
        <mxCell id="CrMVlfWZlN9xDP7UxND2-64" style="edgeStyle=orthogonalEdgeStyle;rounded=0;orthogonalLoop=1;jettySize=auto;html=1;" edge="1" parent="1" source="CrMVlfWZlN9xDP7UxND2-29" target="CrMVlfWZlN9xDP7UxND2-9">
          <mxGeometry relative="1" as="geometry" />
        </mxCell>
        <mxCell id="CrMVlfWZlN9xDP7UxND2-65" value="1.*" style="edgeLabel;html=1;align=center;verticalAlign=middle;resizable=0;points=[];" vertex="1" connectable="0" parent="CrMVlfWZlN9xDP7UxND2-64">
          <mxGeometry x="0.8851" y="2" relative="1" as="geometry">
            <mxPoint as="offset" />
          </mxGeometry>
        </mxCell>
        <mxCell id="CrMVlfWZlN9xDP7UxND2-66" value="1.1" style="edgeLabel;html=1;align=center;verticalAlign=middle;resizable=0;points=[];" vertex="1" connectable="0" parent="CrMVlfWZlN9xDP7UxND2-64">
          <mxGeometry x="-0.8793" relative="1" as="geometry">
            <mxPoint as="offset" />
          </mxGeometry>
        </mxCell>
        <mxCell id="CrMVlfWZlN9xDP7UxND2-29" value="LigneCdeClt" style="swimlane;fontStyle=0;childLayout=stackLayout;horizontal=1;startSize=26;fillColor=none;horizontalStack=0;resizeParent=1;resizeParentMax=0;resizeLast=0;collapsible=1;marginBottom=0;whiteSpace=wrap;html=1;" vertex="1" parent="1">
          <mxGeometry x="400" y="410" width="160" height="52" as="geometry" />
        </mxCell>
        <mxCell id="CrMVlfWZlN9xDP7UxND2-30" value="+ id" style="text;strokeColor=none;fillColor=none;align=left;verticalAlign=top;spacingLeft=4;spacingRight=4;overflow=hidden;rotatable=0;points=[[0,0.5],[1,0.5]];portConstraint=eastwest;whiteSpace=wrap;html=1;" vertex="1" parent="CrMVlfWZlN9xDP7UxND2-29">
          <mxGeometry y="26" width="160" height="26" as="geometry" />
        </mxCell>
        <mxCell id="CrMVlfWZlN9xDP7UxND2-58" style="edgeStyle=orthogonalEdgeStyle;rounded=0;orthogonalLoop=1;jettySize=auto;html=1;" edge="1" parent="1" source="CrMVlfWZlN9xDP7UxND2-31" target="CrMVlfWZlN9xDP7UxND2-33">
          <mxGeometry relative="1" as="geometry" />
        </mxCell>
        <mxCell id="CrMVlfWZlN9xDP7UxND2-59" value="1.*" style="edgeLabel;html=1;align=center;verticalAlign=middle;resizable=0;points=[];" vertex="1" connectable="0" parent="CrMVlfWZlN9xDP7UxND2-58">
          <mxGeometry x="0.6481" y="1" relative="1" as="geometry">
            <mxPoint as="offset" />
          </mxGeometry>
        </mxCell>
        <mxCell id="CrMVlfWZlN9xDP7UxND2-60" value="1.1" style="edgeLabel;html=1;align=center;verticalAlign=middle;resizable=0;points=[];" vertex="1" connectable="0" parent="CrMVlfWZlN9xDP7UxND2-58">
          <mxGeometry x="-0.7037" y="-1" relative="1" as="geometry">
            <mxPoint as="offset" />
          </mxGeometry>
        </mxCell>
        <mxCell id="CrMVlfWZlN9xDP7UxND2-31" value="Client" style="swimlane;fontStyle=0;childLayout=stackLayout;horizontal=1;startSize=26;fillColor=none;horizontalStack=0;resizeParent=1;resizeParentMax=0;resizeLast=0;collapsible=1;marginBottom=0;whiteSpace=wrap;html=1;" vertex="1" parent="1">
          <mxGeometry x="400" y="680" width="140" height="52" as="geometry" />
        </mxCell>
        <mxCell id="CrMVlfWZlN9xDP7UxND2-32" value="+ id" style="text;strokeColor=none;fillColor=none;align=left;verticalAlign=top;spacingLeft=4;spacingRight=4;overflow=hidden;rotatable=0;points=[[0,0.5],[1,0.5]];portConstraint=eastwest;whiteSpace=wrap;html=1;" vertex="1" parent="CrMVlfWZlN9xDP7UxND2-31">
          <mxGeometry y="26" width="140" height="26" as="geometry" />
        </mxCell>
        <mxCell id="CrMVlfWZlN9xDP7UxND2-61" style="edgeStyle=orthogonalEdgeStyle;rounded=0;orthogonalLoop=1;jettySize=auto;html=1;" edge="1" parent="1" source="CrMVlfWZlN9xDP7UxND2-33" target="CrMVlfWZlN9xDP7UxND2-29">
          <mxGeometry relative="1" as="geometry" />
        </mxCell>
        <mxCell id="CrMVlfWZlN9xDP7UxND2-62" value="1.*" style="edgeLabel;html=1;align=center;verticalAlign=middle;resizable=0;points=[];" vertex="1" connectable="0" parent="CrMVlfWZlN9xDP7UxND2-61">
          <mxGeometry x="0.5294" relative="1" as="geometry">
            <mxPoint as="offset" />
          </mxGeometry>
        </mxCell>
        <mxCell id="CrMVlfWZlN9xDP7UxND2-63" value="1.1" style="edgeLabel;html=1;align=center;verticalAlign=middle;resizable=0;points=[];" vertex="1" connectable="0" parent="CrMVlfWZlN9xDP7UxND2-61">
          <mxGeometry x="-0.6765" y="2" relative="1" as="geometry">
            <mxPoint as="offset" />
          </mxGeometry>
        </mxCell>
        <mxCell id="CrMVlfWZlN9xDP7UxND2-33" value="CommandeClient" style="swimlane;fontStyle=0;childLayout=stackLayout;horizontal=1;startSize=26;fillColor=none;horizontalStack=0;resizeParent=1;resizeParentMax=0;resizeLast=0;collapsible=1;marginBottom=0;whiteSpace=wrap;html=1;" vertex="1" parent="1">
          <mxGeometry x="400" y="520" width="140" height="52" as="geometry" />
        </mxCell>
        <mxCell id="CrMVlfWZlN9xDP7UxND2-34" value="+ id" style="text;strokeColor=none;fillColor=none;align=left;verticalAlign=top;spacingLeft=4;spacingRight=4;overflow=hidden;rotatable=0;points=[[0,0.5],[1,0.5]];portConstraint=eastwest;whiteSpace=wrap;html=1;" vertex="1" parent="CrMVlfWZlN9xDP7UxND2-33">
          <mxGeometry y="26" width="140" height="26" as="geometry" />
        </mxCell>
        <mxCell id="CrMVlfWZlN9xDP7UxND2-36" style="edgeStyle=orthogonalEdgeStyle;rounded=0;orthogonalLoop=1;jettySize=auto;html=1;" edge="1" parent="1" source="CrMVlfWZlN9xDP7UxND2-2" target="CrMVlfWZlN9xDP7UxND2-9">
          <mxGeometry relative="1" as="geometry" />
        </mxCell>
        <mxCell id="CrMVlfWZlN9xDP7UxND2-45" value="&lt;font&gt;0.1&lt;/font&gt;" style="edgeLabel;html=1;align=center;verticalAlign=middle;resizable=0;points=[];fontColor=#000000;" vertex="1" connectable="0" parent="CrMVlfWZlN9xDP7UxND2-36">
          <mxGeometry x="-0.7633" relative="1" as="geometry">
            <mxPoint as="offset" />
          </mxGeometry>
        </mxCell>
        <mxCell id="CrMVlfWZlN9xDP7UxND2-80" value="1.*" style="edgeLabel;html=1;align=center;verticalAlign=middle;resizable=0;points=[];" vertex="1" connectable="0" parent="CrMVlfWZlN9xDP7UxND2-36">
          <mxGeometry x="0.7528" y="-2" relative="1" as="geometry">
            <mxPoint as="offset" />
          </mxGeometry>
        </mxCell>
      </root>
    </mxGraphModel>
  </diagram>
</mxfile>
